<mxfile host="app.diagrams.net" modified="2024-02-08T18:51:57.032Z" agent="Mozilla/5.0 (Macintosh; Intel Mac OS X 10_15_7) AppleWebKit/537.36 (KHTML, like Gecko) Chrome/121.0.0.0 Safari/537.36" etag="Ia2pqUP5TRLCp4PoFER_" version="23.1.1" type="device">
  <diagram name="Page-1" id="aUhm-2cw7fQXJ3CE9i9V">
    <mxGraphModel dx="918" dy="458" grid="1" gridSize="10" guides="1" tooltips="1" connect="1" arrows="1" fold="1" page="1" pageScale="1" pageWidth="827" pageHeight="1169" math="0" shadow="0">
      <root>
        <mxCell id="0" />
        <mxCell id="1" parent="0" />
        <mxCell id="yzdNArOSsK1gX2W_lpv4-5" value="Gallery" style="swimlane;fontStyle=1;align=center;verticalAlign=top;childLayout=stackLayout;horizontal=1;startSize=26;horizontalStack=0;resizeParent=1;resizeParentMax=0;resizeLast=0;collapsible=1;marginBottom=0;whiteSpace=wrap;html=1;" vertex="1" parent="1">
          <mxGeometry x="240" y="80" width="290" height="240" as="geometry" />
        </mxCell>
        <mxCell id="yzdNArOSsK1gX2W_lpv4-6" value="- name : String&lt;br&gt;- till : double&lt;br&gt;- stock : ArrayList&amp;lt;Artwork&amp;gt;&lt;br&gt;" style="text;strokeColor=none;fillColor=none;align=left;verticalAlign=top;spacingLeft=4;spacingRight=4;overflow=hidden;rotatable=0;points=[[0,0.5],[1,0.5]];portConstraint=eastwest;whiteSpace=wrap;html=1;" vertex="1" parent="yzdNArOSsK1gX2W_lpv4-5">
          <mxGeometry y="26" width="290" height="84" as="geometry" />
        </mxCell>
        <mxCell id="yzdNArOSsK1gX2W_lpv4-7" value="" style="line;strokeWidth=1;fillColor=none;align=left;verticalAlign=middle;spacingTop=-1;spacingLeft=3;spacingRight=3;rotatable=0;labelPosition=right;points=[];portConstraint=eastwest;strokeColor=inherit;" vertex="1" parent="yzdNArOSsK1gX2W_lpv4-5">
          <mxGeometry y="110" width="290" height="8" as="geometry" />
        </mxCell>
        <mxCell id="yzdNArOSsK1gX2W_lpv4-8" value="+ removeArtwork(Artwork) : void&lt;br&gt;+ addArtwork(Artwork) : void&lt;br&gt;+ getTill() : double&lt;br&gt;+ addTill(double) : double&lt;br&gt;+ getStock(ArrayList&amp;lt;Artwork&amp;gt;) : ArrayList&amp;lt;Artwork&amp;gt;&lt;br&gt;+ getArtwork(Artwork) : Artwork&lt;br&gt;+ stock_take() : double" style="text;strokeColor=none;fillColor=none;align=left;verticalAlign=top;spacingLeft=4;spacingRight=4;overflow=hidden;rotatable=0;points=[[0,0.5],[1,0.5]];portConstraint=eastwest;whiteSpace=wrap;html=1;" vertex="1" parent="yzdNArOSsK1gX2W_lpv4-5">
          <mxGeometry y="118" width="290" height="122" as="geometry" />
        </mxCell>
        <mxCell id="yzdNArOSsK1gX2W_lpv4-9" value="Customer" style="swimlane;fontStyle=1;align=center;verticalAlign=top;childLayout=stackLayout;horizontal=1;startSize=26;horizontalStack=0;resizeParent=1;resizeParentMax=0;resizeLast=0;collapsible=1;marginBottom=0;whiteSpace=wrap;html=1;" vertex="1" parent="1">
          <mxGeometry x="560" y="80" width="220" height="180" as="geometry" />
        </mxCell>
        <mxCell id="yzdNArOSsK1gX2W_lpv4-10" value="- name : String&lt;br&gt;- wallet : double&lt;br&gt;- artCollection : ArrayList&amp;lt;Artwork&amp;gt;" style="text;strokeColor=none;fillColor=none;align=left;verticalAlign=top;spacingLeft=4;spacingRight=4;overflow=hidden;rotatable=0;points=[[0,0.5],[1,0.5]];portConstraint=eastwest;whiteSpace=wrap;html=1;" vertex="1" parent="yzdNArOSsK1gX2W_lpv4-9">
          <mxGeometry y="26" width="220" height="64" as="geometry" />
        </mxCell>
        <mxCell id="yzdNArOSsK1gX2W_lpv4-11" value="" style="line;strokeWidth=1;fillColor=none;align=left;verticalAlign=middle;spacingTop=-1;spacingLeft=3;spacingRight=3;rotatable=0;labelPosition=right;points=[];portConstraint=eastwest;strokeColor=inherit;" vertex="1" parent="yzdNArOSsK1gX2W_lpv4-9">
          <mxGeometry y="90" width="220" height="8" as="geometry" />
        </mxCell>
        <mxCell id="yzdNArOSsK1gX2W_lpv4-12" value="+ buyArtwork() : void&lt;br&gt;+ getWallet() : double&lt;br&gt;+ getArtCollection : ArrayList&amp;lt;Artwork&amp;gt;&lt;br&gt;" style="text;strokeColor=none;fillColor=none;align=left;verticalAlign=top;spacingLeft=4;spacingRight=4;overflow=hidden;rotatable=0;points=[[0,0.5],[1,0.5]];portConstraint=eastwest;whiteSpace=wrap;html=1;" vertex="1" parent="yzdNArOSsK1gX2W_lpv4-9">
          <mxGeometry y="98" width="220" height="82" as="geometry" />
        </mxCell>
        <mxCell id="yzdNArOSsK1gX2W_lpv4-21" value="Artwork" style="swimlane;fontStyle=1;align=center;verticalAlign=top;childLayout=stackLayout;horizontal=1;startSize=26;horizontalStack=0;resizeParent=1;resizeParentMax=0;resizeLast=0;collapsible=1;marginBottom=0;whiteSpace=wrap;html=1;" vertex="1" parent="1">
          <mxGeometry x="50" y="80" width="160" height="170" as="geometry" />
        </mxCell>
        <mxCell id="yzdNArOSsK1gX2W_lpv4-22" value="- title : String&lt;br style=&quot;border-color: var(--border-color);&quot;&gt;- artist : String&lt;br style=&quot;border-color: var(--border-color);&quot;&gt;- price : double" style="text;strokeColor=none;fillColor=none;align=left;verticalAlign=top;spacingLeft=4;spacingRight=4;overflow=hidden;rotatable=0;points=[[0,0.5],[1,0.5]];portConstraint=eastwest;whiteSpace=wrap;html=1;" vertex="1" parent="yzdNArOSsK1gX2W_lpv4-21">
          <mxGeometry y="26" width="160" height="74" as="geometry" />
        </mxCell>
        <mxCell id="yzdNArOSsK1gX2W_lpv4-23" value="" style="line;strokeWidth=1;fillColor=none;align=left;verticalAlign=middle;spacingTop=-1;spacingLeft=3;spacingRight=3;rotatable=0;labelPosition=right;points=[];portConstraint=eastwest;strokeColor=inherit;" vertex="1" parent="yzdNArOSsK1gX2W_lpv4-21">
          <mxGeometry y="100" width="160" height="8" as="geometry" />
        </mxCell>
        <mxCell id="yzdNArOSsK1gX2W_lpv4-24" value="+ getTitle() : String&lt;br&gt;+ getArtist() : String&lt;br&gt;+ getPrice() : double" style="text;strokeColor=none;fillColor=none;align=left;verticalAlign=top;spacingLeft=4;spacingRight=4;overflow=hidden;rotatable=0;points=[[0,0.5],[1,0.5]];portConstraint=eastwest;whiteSpace=wrap;html=1;" vertex="1" parent="yzdNArOSsK1gX2W_lpv4-21">
          <mxGeometry y="108" width="160" height="62" as="geometry" />
        </mxCell>
      </root>
    </mxGraphModel>
  </diagram>
</mxfile>
